<?xml version="1.0" encoding="UTF-8"?>
<svg width="40" height="40" viewBox="0 0 40 40" fill="none" xmlns="http://www.w3.org/2000/svg">
    <!-- Marker shadow -->
    <ellipse cx="20" cy="36" rx="12" ry="4" fill="rgba(0,0,0,0.2)"/>
    
    <!-- Marker pin -->
    <path d="M20 0C12.268 0 6 6.268 6 14C6 22.5 20 40 20 40C20 40 34 22.5 34 14C34 6.268 27.732 0 20 0Z" fill="#FF4B4B"/>
    
    <!-- Marker border -->
    <path d="M20 0C12.268 0 6 6.268 6 14C6 22.5 20 40 20 40C20 40 34 22.5 34 14C34 6.268 27.732 0 20 0Z" stroke="white" stroke-width="2"/>
    
    <!-- Marker center dot -->
    <circle cx="20" cy="14" r="4" fill="white"/>
</svg> 